o mesh_face_normals_demo
v 4.59687 1.20504 -1.0733
v 4.62779 1.19504 -1.09916
v 4.58849 1.20504 -1.02628
v 4.58625 1.20504 -1.01591
v 4.57021 1.19504 -0.966931
v 4.50295 1.18504 -0.92362
v 4.5246 1.19754 -0.889989
v 4.79595 1.20504 -1.20744
v 4.82958 1.20254 -1.22909
v 4.73816 1.20504 -1.14941
v 4.72868 1.19754 -1.16413
v 4.70723 1.20504 -1.12355
v 3.88849 0.165035 -1.05128
v 3.89059 0.205035 -1.05264
v 3.90384 0.165035 -1.01359
v 3.90384 0.205035 -1.01359
v 3.90174 0.245035 -1.01224
v 3.89919 0.165035 -1.2009
v 3.89709 0.170035 -1.19955
v 3.89563 0.165035 -1.15103
v 3.89289 0.205035 -1.19684
v 3.89053 0.165035 -1.13585
v 3.89709 0.245035 -1.19955
v 3.89709 0.247535 -1.19955
v 3.93072 0.295035 -1.22121
v 3.95238 0.302535 -1.18757
v 3.9404 0.300035 -1.13229
v 3.92843 0.302535 -1.077
v 3.96206 0.302535 -1.09866
v 3.88575 0.165035 -1.0971
v 3.88365 0.205035 -1.09574
v 3.88301 0.285035 -1.14291
v 3.91371 0.285035 -1.06753
vn -0.0018327999999999992 -9.994839999999985e-05 0.00010960000000000749
vn -0.001723999999999997 9.994839999999985e-05 0.0002776000000000068
vn -0.0015076000000000004 0.00010002500000000036 0.000614000000000008
vn -0.0015620000000000015 0.0 0.0005300000000000083
vn -0.0015620000000000015 -9.989249999999949e-05 0.0005300000000000083
vn -0.005862999999999987 -0.0006004672000000041 -0.00023829999999997581
vn -0.0016707499999999943 -0.0001997311999999986 -9.79999999999769e-06
vn -0.0018215999999999966 -0.00015015960000000045 -0.0006120000000000126
vn -0.002373999999999992 0.0001997311999999986 -0.0007311999999999941
vn -0.0035026499999999895 0.0015998303999999988 -0.0019299249999999947
vn -0.00014159999999999962 -0.0 -3.519999999999971e-05
vn -0.0012806999999999992 0.005000317199999979 -0.00014175000000000063
vn -0.0004987000000000001 0.001600371999999983 -3.569999999999965e-05
vn -0.0008028000000000015 0.003300214499999993 -0.0003230249999999971
vn -5.415000000000008e-05 0.0016001325000000086 -8.407500000000019e-05
vn -0.004650000000000007 -0.00032514680000000126 -0.0005736000000000274
vn -0.001995600000000009 -9.992739999999957e-05 -0.00014240000000000915
vn -0.001723999999999997 0.0002001890000000016 0.0002776000000000068
vn -0.005551599999999998 0.0019996911000000057 0.0002448000000000222
vn -0.001251274999999987 0.0006999193999999976 -0.0006515500000000012
vn -0.006098275000000014 0.002100279000000024 0.003644799999999996
s off
f 13//1 31//1 30//1 
f 13//2 14//2 31//2 
f 14//3 13//3 15//3 
f 16//4 14//4 15//4 
f 17//5 14//5 16//5 
f 32//6 19//6 20//6 
f 21//7 19//7 32//7 
f 32//8 20//8 22//8 
f 23//9 21//9 32//9 
f 25//10 24//10 32//10 
f 24//11 23//11 32//11 
f 27//12 25//12 32//12 
f 26//13 25//13 27//13 
f 27//14 32//14 28//14 
f 27//15 28//15 29//15 
f 30//16 32//16 22//16 
f 31//17 32//17 30//17 
f 14//18 17//18 31//18 
f 31//19 17//19 33//19 
f 28//20 31//20 33//20 
f 28//21 32//21 31//21 
